<svg width="48" height="48" viewBox="0 0 48 48" fill="none" xmlns="http://www.w3.org/2000/svg">
<path d="M48 40.96V43.2C48 45.84 45.84 48 43.2 48H4.8C2.16 48 0 45.84 0 43.2V40.96C0 35.12 6.8 31.6 13.2 28.8C13.44 28.72 13.6 28.64 13.84 28.48C14.32 28.24 14.88 28.24 15.36 28.56C17.92 30.24 20.88 31.2 24 31.2C27.12 31.2 30.08 30.24 32.64 28.64C33.12 28.32 33.68 28.32 34.16 28.56C34.4 28.64 34.56 28.72 34.8 28.88C41.2 31.6 48 35.12 48 40.96Z" fill="white"/>
<path d="M23.92 26.4C30.5032 26.4 35.84 20.4902 35.84 13.2C35.84 5.90984 30.5032 0 23.92 0C17.3368 0 12 5.90984 12 13.2C12 20.4902 17.3368 26.4 23.92 26.4Z" fill="white"/>
</svg>
