<svg width="50" height="54" viewBox="0 0 50 54" fill="none" xmlns="http://www.w3.org/2000/svg">
<path d="M28.6859 7.32344L34.7344 12.5516H28.6859V7.32344ZM40.3781 44.5875C39.1422 44.5875 38.1359 45.5828 38.1359 46.8188V49.3344H4.86406V4.66563H24.2125V14.7719C24.2125 16.0078 25.2188 17.0031 26.4547 17.0031H38.1469V30.3906C38.1469 31.6266 39.1531 32.6219 40.3891 32.6219C41.625 32.6219 42.6313 31.6266 42.6313 30.3906V14.4656C42.6313 13.8203 42.3469 13.1969 41.8547 12.7812L27.9203 0.75C27.5156 0.4 26.9906 0.203125 26.4547 0.203125H2.63281C1.39688 0.203125 0.390625 1.19844 0.390625 2.43438V51.5656C0.390625 52.8016 1.39688 53.7969 2.63281 53.7969H40.3891C41.625 53.7969 42.6313 52.8016 42.6313 51.5656V46.8188C42.6203 45.5828 41.6141 44.5875 40.3781 44.5875Z" fill="white"/>
<path d="M30.4355 20.7547H12.7168C11.4809 20.7547 10.4746 21.75 10.4746 22.9859C10.4746 24.2219 11.4809 25.2172 12.7168 25.2172H30.4465C31.6824 25.2172 32.6887 24.2219 32.6887 22.9859C32.6887 21.75 31.6715 20.7547 30.4355 20.7547Z" fill="white"/>
<path d="M30.4355 31.7469H12.7168C11.4809 31.7469 10.4746 32.7422 10.4746 33.9781C10.4746 35.2141 11.4809 36.2094 12.7168 36.2094H30.4465C31.6824 36.2094 32.6887 35.2141 32.6887 33.9781C32.6777 32.7531 31.6715 31.7469 30.4355 31.7469Z" fill="white"/>
<path d="M49.5981 33.7266C49.4887 32.5016 48.395 31.5937 47.17 31.7031C42.1168 32.1516 37.3153 37.675 34.8434 41.0328L33.3887 39.3812C32.5684 38.4516 31.1575 38.3641 30.2278 39.1844C29.2981 40.0047 29.2106 41.4156 30.0309 42.3344L33.3887 46.1406C34.7012 47.4422 36.145 47.2016 36.9653 45.8453C38.4309 43.4281 43.6043 36.5047 47.5637 36.1547C48.7996 36.0344 49.7075 34.9516 49.5981 33.7266Z" fill="white"/>
</svg>
