<svg width="16" height="16" viewBox="0 0 16 16" fill="none" xmlns="http://www.w3.org/2000/svg">
<path d="M7.99979 0C3.58168 0 0 3.58184 0 7.99989C0 12.4179 3.58168 15.9999 7.99979 15.9999C12.4179 15.9999 16 12.4179 16 7.99989C15.9999 3.58184 12.4179 0 7.99979 0ZM5.91828 5.61908C6.02895 5.50841 6.17391 5.4531 6.31887 5.4531C6.46383 5.4531 6.60868 5.50841 6.7193 5.61908L7.42848 6.32815V6.11956V3.33213C7.42848 3.01922 7.68203 2.76567 7.99493 2.76567C8.30784 2.76567 8.56139 3.01922 8.56139 3.33213V6.11951V6.36644L8.80833 6.11951L9.30892 5.61902C9.41958 5.50836 9.56438 5.45305 9.70934 5.45305C9.85431 5.45305 9.99927 5.50836 10.1099 5.61902C10.246 5.75497 10.2978 5.94324 10.2664 6.11951C10.2664 6.11967 10.2662 6.11977 10.2662 6.11993C10.2639 6.13268 10.2599 6.14495 10.2567 6.15743C10.2518 6.17695 10.2466 6.19631 10.2395 6.21524C10.2348 6.22799 10.2294 6.24041 10.2237 6.25284C10.2148 6.27263 10.2046 6.29156 10.1934 6.31039C10.1874 6.32036 10.1819 6.33028 10.1753 6.33983C10.1559 6.36778 10.1347 6.39487 10.1098 6.41978L9.30369 7.22591L8.41883 8.11077C8.30806 8.22144 8.1632 8.27637 8.0184 8.27637C8.01701 8.27637 8.01563 8.27637 8.01424 8.27637C8.01285 8.27637 8.01136 8.27637 8.01008 8.27637C7.86528 8.27637 7.72043 8.22144 7.60965 8.11077L6.72479 7.22591L5.91865 6.41978C5.89375 6.39487 5.87257 6.36788 5.85348 6.33999C5.84671 6.33018 5.84116 6.3201 5.83508 6.31012C5.82404 6.29146 5.81391 6.27263 5.80505 6.25311C5.79924 6.24036 5.79369 6.22777 5.789 6.21481C5.78223 6.19625 5.77711 6.17748 5.77225 6.15849C5.76895 6.14537 5.76463 6.13263 5.76228 6.11935C5.73039 5.94329 5.78201 5.75502 5.91828 5.61908ZM12.3507 11.1635H12.3505C12.3505 11.9282 11.6008 12.5272 10.6436 12.5272H5.35652C4.39944 12.5272 3.64957 11.9282 3.64957 11.1635V7.48325C3.64957 6.83701 4.186 6.31055 4.92979 6.16265C4.96201 6.48164 5.10174 6.77738 5.33161 7.00714L5.5507 7.22623H5.35652C4.96905 7.22623 4.75619 7.41936 4.75619 7.48325V11.1635C4.75619 11.2276 4.9691 11.4206 5.35652 11.4206H10.6438C11.0312 11.4206 11.2441 11.2274 11.2441 11.1635V7.48325C11.2441 7.41936 11.0312 7.22623 10.6438 7.22623H10.4774L10.6966 7.00698C10.925 6.77877 11.0643 6.48506 11.0975 6.1682C11.8271 6.32356 12.3507 6.84501 12.3507 7.48341V11.1635Z" fill="black"/>
</svg>
