<svg width="24" height="24" viewBox="0 0 24 24" fill="none" xmlns="http://www.w3.org/2000/svg">
<path d="M23.5606 4.93945L19.0606 0.439453C18.4746 -0.146484 17.5254 -0.146484 16.9395 0.439453L15.2197 2.1592L21.8408 8.7803L23.5606 7.06055C24.1465 6.47461 24.1465 5.52539 23.5606 4.93945Z" fill="black"/>
<path d="M0.0446755 22.1359C-0.0827776 22.6472 0.0666599 23.1877 0.439457 23.5605C0.724363 23.8454 1.10743 24 1.5 24C1.62085 24 1.74314 23.9854 1.86403 23.9553L6.6885 22.749L1.251 17.3115L0.0446755 22.1359Z" fill="black"/>
<path d="M16.9395 6.0469L14.1592 3.2666C14.1592 3.2666 1.81641 15.6133 1.73438 15.7031L4.5 18.4863L16.9395 6.0469Z" fill="black"/>
<path d="M5.56055 19.5L8.34375 22.2656C8.43459 22.1777 20.7803 9.8408 20.7803 9.8408L18 7.06055L5.56055 19.5Z" fill="black"/>
</svg>
