<svg width="28" height="34" viewBox="0 0 28 34" fill="none" xmlns="http://www.w3.org/2000/svg">
<path d="M0.666626 17C0.666626 17.442 0.842221 17.8659 1.15478 18.1785C1.46734 18.4911 1.89126 18.6667 2.33329 18.6667H14.9833L11.15 22.4833C10.9937 22.6383 10.8698 22.8226 10.7851 23.0257C10.7005 23.2288 10.657 23.4466 10.657 23.6667C10.657 23.8867 10.7005 24.1045 10.7851 24.3076C10.8698 24.5107 10.9937 24.6951 11.15 24.85C11.3049 25.0062 11.4892 25.1302 11.6923 25.2148C11.8954 25.2994 12.1133 25.343 12.3333 25.343C12.5533 25.343 12.7712 25.2994 12.9743 25.2148C13.1774 25.1302 13.3617 25.0062 13.5166 24.85L20.1833 18.1833C20.335 18.0248 20.454 17.8379 20.5333 17.6333C20.7 17.2276 20.7 16.7724 20.5333 16.3667C20.454 16.1621 20.335 15.9752 20.1833 15.8167L13.5166 9.14999C13.3612 8.9946 13.1767 8.87133 12.9737 8.78723C12.7707 8.70313 12.5531 8.65984 12.3333 8.65984C12.1135 8.65984 11.8959 8.70313 11.6929 8.78723C11.4898 8.87133 11.3054 8.9946 11.15 9.14999C10.9946 9.30539 10.8713 9.48988 10.7872 9.69291C10.7031 9.89595 10.6598 10.1136 10.6598 10.3333C10.6598 10.5531 10.7031 10.7707 10.7872 10.9737C10.8713 11.1768 10.9946 11.3613 11.15 11.5167L14.9833 15.3333H2.33329C1.89126 15.3333 1.46734 15.5089 1.15478 15.8215C0.842221 16.134 0.666626 16.558 0.666626 17ZM22.3333 0.333328H5.66663C4.34054 0.333328 3.06877 0.860113 2.13109 1.79779C1.19341 2.73548 0.666626 4.00725 0.666626 5.33333V10.3333C0.666626 10.7754 0.842221 11.1993 1.15478 11.5118C1.46734 11.8244 1.89126 12 2.33329 12C2.77532 12 3.19924 11.8244 3.5118 11.5118C3.82436 11.1993 3.99996 10.7754 3.99996 10.3333V5.33333C3.99996 4.8913 4.17555 4.46738 4.48811 4.15482C4.80067 3.84226 5.2246 3.66666 5.66663 3.66666H22.3333C22.7753 3.66666 23.1992 3.84226 23.5118 4.15482C23.8244 4.46738 24 4.8913 24 5.33333V28.6667C24 29.1087 23.8244 29.5326 23.5118 29.8452C23.1992 30.1577 22.7753 30.3333 22.3333 30.3333H5.66663C5.2246 30.3333 4.80067 30.1577 4.48811 29.8452C4.17555 29.5326 3.99996 29.1087 3.99996 28.6667V23.6667C3.99996 23.2246 3.82436 22.8007 3.5118 22.4882C3.19924 22.1756 2.77532 22 2.33329 22C1.89126 22 1.46734 22.1756 1.15478 22.4882C0.842221 22.8007 0.666626 23.2246 0.666626 23.6667V28.6667C0.666626 29.9927 1.19341 31.2645 2.13109 32.2022C3.06877 33.1399 4.34054 33.6667 5.66663 33.6667H22.3333C23.6594 33.6667 24.9311 33.1399 25.8688 32.2022C26.8065 31.2645 27.3333 29.9927 27.3333 28.6667V5.33333C27.3333 4.00725 26.8065 2.73548 25.8688 1.79779C24.9311 0.860113 23.6594 0.333328 22.3333 0.333328Z" fill="white"/>
</svg>
