<svg width="48" height="48" viewBox="0 0 48 48" fill="none" xmlns="http://www.w3.org/2000/svg">
<path d="M36 15.4286H12C11.5453 15.4286 11.1093 15.248 10.7878 14.9265C10.4663 14.605 10.2857 14.1689 10.2857 13.7143V6.85714C10.2857 5.03852 11.0082 3.29437 12.2941 2.00841C13.5801 0.722447 15.3242 0 17.1428 0H30.8571C32.6758 0 34.4199 0.722447 35.7059 2.00841C36.9918 3.29437 37.7143 5.03852 37.7143 6.85714V13.7143C37.7143 14.1689 37.5337 14.605 37.2122 14.9265C36.8907 15.248 36.4546 15.4286 36 15.4286ZM13.7143 12H34.2857V6.85714C34.2857 5.94783 33.9245 5.07576 33.2815 4.43278C32.6385 3.78979 31.7664 3.42857 30.8571 3.42857H17.1428C16.2335 3.42857 15.3615 3.78979 14.7185 4.43278C14.0755 5.07576 13.7143 5.94783 13.7143 6.85714V12Z" fill="white"/>
<path d="M24 30.8571C23.3219 30.8571 22.659 30.6561 22.0952 30.2793C21.5313 29.9026 21.0919 29.3671 20.8324 28.7406C20.5729 28.1141 20.505 27.4248 20.6373 26.7597C20.7696 26.0946 21.0961 25.4837 21.5756 25.0042C22.0551 24.5247 22.666 24.1982 23.3311 24.0659C23.9962 23.9336 24.6856 24.0015 25.312 24.261C25.9385 24.5205 26.474 24.9599 26.8507 25.5238C27.2275 26.0876 27.4286 26.7505 27.4286 27.4286C27.4286 28.3379 27.0673 29.21 26.4244 29.8529C25.7814 30.4959 24.9093 30.8571 24 30.8571Z" fill="white"/>
<path d="M23.9999 37.7143C23.5453 37.7143 23.1092 37.5337 22.7877 37.2122C22.4663 36.8907 22.2856 36.4547 22.2856 36V27.4286C22.2856 26.9739 22.4663 26.5379 22.7877 26.2164C23.1092 25.8949 23.5453 25.7143 23.9999 25.7143C24.4546 25.7143 24.8906 25.8949 25.2121 26.2164C25.5336 26.5379 25.7142 26.9739 25.7142 27.4286V36C25.7142 36.4547 25.5336 36.8907 25.2121 37.2122C24.8906 37.5337 24.4546 37.7143 23.9999 37.7143Z" fill="white"/>
<path d="M39.4286 48H8.57143C6.29814 48 4.11797 47.0969 2.51051 45.4895C0.903059 43.882 0 41.7019 0 39.4286V20.5714C0 18.2981 0.903059 16.118 2.51051 14.5105C4.11797 12.9031 6.29814 12 8.57143 12H39.4286C41.7019 12 43.882 12.9031 45.4895 14.5105C47.0969 16.118 48 18.2981 48 20.5714V39.4286C48 41.7019 47.0969 43.882 45.4895 45.4895C43.882 47.0969 41.7019 48 39.4286 48ZM8.57143 15.4286C7.20746 15.4286 5.89935 15.9704 4.93488 16.9349C3.97041 17.8994 3.42857 19.2075 3.42857 20.5714V39.4286C3.42857 40.7925 3.97041 42.1006 4.93488 43.0651C5.89935 44.0296 7.20746 44.5714 8.57143 44.5714H39.4286C40.7925 44.5714 42.1006 44.0296 43.0651 43.0651C44.0296 42.1006 44.5714 40.7925 44.5714 39.4286V20.5714C44.5714 19.2075 44.0296 17.8994 43.0651 16.9349C42.1006 15.9704 40.7925 15.4286 39.4286 15.4286H8.57143Z" fill="white"/>
<path d="M3.42857 22.8171C4.02857 33.6857 17.8629 38.7429 27.3086 38.7429C36.7543 38.7429 43.7828 38.52 44.5714 28.8514L45.5314 45.4286H2.46857L3.42857 22.8171Z" fill="white"/>
</svg>
