<svg width="52" height="52" viewBox="0 0 52 52" fill="none" xmlns="http://www.w3.org/2000/svg">
<path fill-rule="evenodd" clip-rule="evenodd" d="M29.4021 2.87881L46.545 12.4073C48.6815 13.5948 50 15.8048 50 18.1984V33.8016C50 36.1952 48.6815 38.4052 46.545 39.5927L29.4021 49.1212C27.294 50.2929 24.706 50.2929 22.5979 49.1212L5.45505 39.5927C3.31853 38.4052 2 36.1952 2 33.8016V18.1984C2 15.8048 3.31853 13.5948 5.45505 12.4073L22.5979 2.87881C24.706 1.70706 27.294 1.70706 29.4021 2.87881V2.87881Z" stroke="white" stroke-width="4" stroke-linecap="round" stroke-linejoin="round"/>
<path d="M38.379 20.997L14.1263 7.65723" stroke="white" stroke-width="4" stroke-linecap="round" stroke-linejoin="round"/>
<path d="M3.73233 15.9951L22.9674 25.9647C25.0184 27.0277 27.4869 27.0277 29.5378 25.9647L48.7729 15.9951" stroke="white" stroke-width="4" stroke-linecap="round" stroke-linejoin="round"/>
<path d="M26.2527 27.667V49.3442" stroke="white" stroke-width="4" stroke-linecap="round" stroke-linejoin="round"/>
</svg>
