<svg width="60" height="52" viewBox="0 0 60 52" fill="none" xmlns="http://www.w3.org/2000/svg">
<path d="M52.1739 12.3046V6.44246C52.1739 3.20586 49.5408 0.565155 46.3043 0.565155H42.3913C42.3645 0.565155 42.3383 0.571952 42.3118 0.573006C42.2835 0.574178 42.2554 0.576757 42.2271 0.5791C42.1744 0.583553 42.1228 0.591757 42.0714 0.600194C42.0533 0.603241 42.0353 0.605468 42.0173 0.608983C41.9426 0.623514 41.8695 0.64203 41.798 0.664647L17.3075 8.39117H5.86957C2.63309 8.39129 0 11.0245 0 14.2611V26.0002C0 29.2367 2.63309 31.8696 5.86957 31.8696H7.82613V45.5653C7.82613 48.8018 10.4592 51.4349 13.6957 51.4349C16.9322 51.4349 19.5653 48.8018 19.5653 45.5653V32.5829L41.7987 39.604C41.8192 39.6105 41.8403 39.6153 41.861 39.6212C41.8973 39.6314 41.9338 39.6412 41.9705 39.6493C41.9934 39.6543 42.0166 39.6584 42.0398 39.6628C42.0777 39.6697 42.1155 39.6754 42.1534 39.6801C42.1734 39.6826 42.1936 39.6852 42.2139 39.687C42.2729 39.6925 42.332 39.6961 42.3913 39.6961V39.6959V39.6958H46.3043C49.5408 39.6958 52.1739 37.063 52.1739 33.8265V27.9569C56.4892 27.9569 60 24.4461 60 20.1308C60 15.8155 56.4892 12.3046 52.1739 12.3046ZM15.6521 45.5653C15.6521 46.6441 14.7744 47.5218 13.6956 47.5218C12.6168 47.5218 11.739 46.6441 11.739 45.5653V31.8696H15.652V45.5653H15.6521ZM15.6521 27.9566H9.78258C9.78094 27.9566 9.77918 27.9566 9.77754 27.9566H5.86957C4.79074 27.9566 3.91301 27.0792 3.91301 26.0004V14.2611C3.91301 13.1821 4.79074 12.3043 5.86957 12.3043H15.6521V27.9566ZM40.4347 35.07L19.5652 28.4796V11.7823L40.4347 5.19828V35.07ZM48.2609 14.2611V26.0002V33.8264C48.2609 34.9052 47.3831 35.7826 46.3043 35.7826H44.3477V4.47828H46.3043C47.3831 4.47828 48.2609 5.36352 48.2609 6.44246V14.2611ZM52.1739 24.0438V16.2177C54.3315 16.2177 56.0869 17.973 56.0869 20.1307C56.0869 22.2883 54.3315 24.0438 52.1739 24.0438Z" fill="white"/>
</svg>
