<svg width="48" height="48" viewBox="0 0 48 48" fill="none" xmlns="http://www.w3.org/2000/svg">
<path d="M17.4456 23.3612C17.4456 23.8034 17.0924 24.1572 16.6509 24.1572H13.668C13.2265 24.1572 12.8733 23.8034 12.8733 23.3612V20.3735C12.8733 19.9312 13.2265 19.5774 13.668 19.5774H16.6509C17.0924 19.5774 17.4456 19.9312 17.4456 20.3735V23.3612ZM23.6762 20.3833C23.6762 19.941 23.323 19.5872 22.8814 19.5872H19.8986C19.4571 19.5872 19.1038 19.941 19.1038 20.3833V23.371C19.1038 23.8133 19.4571 24.1671 19.8986 24.1671H22.8814C23.323 24.1671 23.6762 23.8133 23.6762 23.371V20.3833ZM29.9068 20.3833C29.9068 19.941 29.5536 19.5872 29.112 19.5872H26.1292C25.6877 19.5872 25.3344 19.941 25.3344 20.3833V23.371C25.3344 23.8133 25.6877 24.1671 26.1292 24.1671H29.112C29.5536 24.1671 29.9068 23.8133 29.9068 23.371V20.3833ZM17.4456 26.457C17.4456 26.0147 17.0924 25.6609 16.6509 25.6609H13.668C13.2265 25.6609 12.8733 26.0147 12.8733 26.457V29.4447C12.8733 29.887 13.2265 30.2408 13.668 30.2408H16.6509C17.0924 30.2408 17.4456 29.887 17.4456 29.4447V26.457ZM23.6762 26.457C23.6762 26.0147 23.323 25.6609 22.8814 25.6609H19.8986C19.4571 25.6609 19.1038 26.0147 19.1038 26.457V29.4447C19.1038 29.887 19.4571 30.2408 19.8986 30.2408H22.8814C23.323 30.2408 23.6762 29.887 23.6762 29.4447V26.457ZM29.112 25.6609H26.1292C25.6877 25.6609 25.3344 26.0147 25.3344 26.457V29.4447C25.3344 29.887 25.6877 30.2408 26.1292 30.2408H29.112C29.5536 30.2408 29.9068 29.887 29.9068 29.4447V26.457C29.9068 26.0147 29.5536 25.6609 29.112 25.6609ZM10.4105 31.7346H7.43745C6.99591 31.7346 6.64268 32.0885 6.64268 32.5307V35.5184C6.64268 35.9607 6.99591 36.3145 7.43745 36.3145H10.4203C10.8618 36.3145 11.215 35.9607 11.215 35.5184V32.5307C11.215 32.0885 10.852 31.7346 10.4105 31.7346ZM11.215 26.457C11.215 26.0147 10.8618 25.6609 10.4203 25.6609H7.43745C6.99591 25.6609 6.64268 26.0147 6.64268 26.457V29.4447C6.64268 29.887 6.99591 30.2408 7.43745 30.2408H10.4203C10.8618 30.2408 11.215 29.887 11.215 29.4447V26.457ZM22.8814 31.7346H19.8986C19.4571 31.7346 19.1038 32.0885 19.1038 32.5307V35.5184C19.1038 35.9607 19.4571 36.3145 19.8986 36.3145H22.8814C23.323 36.3145 23.6762 35.9607 23.6762 35.5184V32.5307C23.6762 32.0885 23.323 31.7346 22.8814 31.7346ZM16.6509 31.7346H13.668C13.2265 31.7346 12.8733 32.0885 12.8733 32.5307V35.5184C12.8733 35.9607 13.2265 36.3145 13.668 36.3145H16.6509C17.0924 36.3145 17.4456 35.9607 17.4456 35.5184V32.5307C17.4456 32.0885 17.0924 31.7346 16.6509 31.7346ZM35.3426 24.1671C35.7841 24.1671 36.1374 23.8133 36.1374 23.371V20.3833C36.1374 19.941 35.7841 19.5872 35.3426 19.5872H32.3598C31.9182 19.5872 31.565 19.941 31.565 20.3833V23.371C31.565 23.8133 31.9182 24.1671 32.3598 24.1671H35.3426ZM4.68029 42.801H27.3164C26.9534 41.6609 26.7473 40.4423 26.7375 39.1843H4.68029C4.09158 39.1843 3.62061 38.7027 3.62061 38.1229V16.7666H39.1104V26.7027C40.3663 26.7125 41.583 26.8993 42.7212 27.2629V9.28747C42.7212 6.7027 40.6214 4.59951 38.0409 4.59951H32.8013V1.71007C32.8013 0.766585 32.036 0 31.094 0H28.435C27.493 0 26.7277 0.766585 26.7277 1.71007V4.60934H15.9935V1.71007C15.9935 0.766585 15.2281 0 14.2862 0H11.6271C10.6852 0 9.91987 0.766585 9.91987 1.71007V4.60934H4.68029C2.09975 4.60934 0 6.71253 0 9.2973V38.1229C0 40.6978 2.09975 42.801 4.68029 42.801ZM48 39.0467C48 43.9902 43.9967 48 39.0613 48C34.1259 48 30.1226 43.9902 30.1226 39.0467C30.1226 34.1032 34.1259 30.0934 39.0613 30.0934C43.9967 30.0934 48 34.1032 48 39.0467ZM43.5748 36.7273C43.5748 36.4423 43.4669 36.1671 43.2608 35.9705C42.8389 35.5479 42.1619 35.5479 41.74 35.9705L37.8545 39.8624L36.363 38.3685C35.9411 37.9459 35.2641 37.9459 34.8422 38.3685C34.6361 38.5749 34.5282 38.8403 34.5282 39.1253C34.5282 39.4103 34.6361 39.6855 34.8422 39.8821L37.0891 42.1327C37.511 42.5553 38.1881 42.5553 38.61 42.1327L43.251 37.484C43.4669 37.2875 43.5748 37.0123 43.5748 36.7273Z" fill="white"/>
</svg>
